<?xml version="1.0" encoding="UTF-8"?>
<svg id="Layer_1" xmlns="http://www.w3.org/2000/svg" version="1.1" viewBox="0 0 650 382.3">
  <!-- Generator: Adobe Illustrator 29.3.0, SVG Export Plug-In . SVG Version: 2.1.0 Build 146)  -->
  <defs>
    <style>
      .st0 {
        fill: #fff;
      }

      .st1 {
        opacity: .9;
      }
    </style>
  </defs>
  <g class="st1">
    <path class="st0" d="M387.2,13v-4.6h54.2v4.6c-9.4,1.2-10.2,4.5-6.6,18.1l12.3,43.1,13.1-43.3c3.8-13.5,2.7-16.6-6.1-17.9v-4.6h51v4.6c-9.1,1.2-10,4.5-6.3,18.1l12.7,43.1,12.9-43c3.9-13.8,2.6-16.9-6.5-18.3v-4.6h29.7v4.6c-7.2,1.5-10.2,4-15.4,18.9l-23.9,68.7h-17.3l-23.6-66.8-23.6,66.8h-17.3l-25.4-72.4c-3.9-11.1-6.8-13.6-14-15.2h0ZM585.9,6.6c25.7,0,41.1,15.9,41.1,38.9s-.3,4.8-.5,6.4h-57.9c2.5,24.1,16.2,37.8,35.1,37.8s16.9-3.4,21.5-8.2v4.5c-6.7,10.2-20.8,16.4-38,16.4-27.6,0-49.4-18.3-49.4-47.8s19.2-48.1,48.1-48.1h0ZM568.4,46.6l31.7-.4c0-1.8,0-3.7,0-6.4,0-16.5-4.5-27.1-14.3-27.1s-17.6,11.2-17.6,31.2,0,1.8,0,2.7h0ZM355.8,193c0-13.9,10.7-23.4,39.1-29l18.2-3.7v-9.7c0-17-8.3-23.6-22.5-23.6s-9.8,1-13.9,2.9c5.8,1.2,10.3,6.3,10.3,12.7s-6,13.2-13.7,13.2-13.6-5.5-13.6-12.9c0-12.8,15.9-23.2,41.5-23.2s41.8,9.6,41.8,31.4v44.4c0,7.7,3.8,10.9,8.9,10.9s2.7-.2,3.6-.5v4.3c-3.8,2.7-10.9,4.8-18.9,4.8s-21.1-5.2-22.8-15.3c-3.6,9.5-15.6,15.8-30.8,15.8s-27-9-27-22.5M399.2,203.9c6.4,0,11.3-2.8,13.8-7.8v-30.6l-6.5,1.5c-15.4,3.6-20.8,10.7-20.8,21.3s5.8,15.6,13.5,15.6M500,146.4c8.9-18.5,16.7-26.3,26.1-26.3s12.3,6.7,12.3,15-1,7.9-2.1,10.1c-2.7-1-8.1-1.9-13.4-1.9-9.2,0-18.6,2.4-22.6,6.2v48.6c0,7.3,1.7,9.3,11.9,10.9v4.5h-53.1v-4.5c9.2-1.5,10.7-3.5,10.7-10v-59c0-6-.8-7.3-5.9-9.1l-4.7-1.5v-4.3l41-5v26.2c0,0,0,0,0,0ZM585.9,119.6c25.7,0,41.1,15.9,41.1,38.9s-.3,4.8-.5,6.4h-57.9c2.5,24.1,16.2,37.8,35.1,37.8s16.9-3.4,21.5-8.2v4.5c-6.7,10.2-20.8,16.4-38,16.4-27.6,0-49.4-18.3-49.4-47.8s19.2-48.1,48.1-48.1h0ZM568.4,159.6l31.7-.4c0-1.8,0-3.7,0-6.4,0-16.5-4.5-27.1-14.3-27.1s-17.6,11.2-17.6,31.2,0,1.8,0,2.7h0ZM34,245.5h-11v-4.2l39.3-28.7h3.7v25.4l23.4-1.5v9l-23.4-1.5v61.1c0,12.9,5.6,17.9,13.9,17.9s8.3-1.6,10.7-3.8v4.8c-4,6.1-14.6,11.5-27.2,11.5s-29.3-9.1-29.3-30.6v-59.5h0ZM137.4,253.2c5-11,17-18.6,33.4-18.6s33.2,10.1,33.2,31.2v52.2c0,7,1.7,9.1,11.3,10.7v4.8h-53.1v-4.8c8.3-1.5,9.8-3.3,9.8-10.2v-51c0-13.1-6.4-19.6-17.5-19.6s-14.2,3.7-17.1,9.2v61.4c0,6.8,1.3,8.6,9.8,10.2v4.8h-53.1v-4.8c9.5-1.7,11.2-3.7,11.2-10.7v-109.8c0-6.3-.8-7.7-6.2-9.6l-5-1.7v-4.5l43.4-5.3v65.9h0ZM235.1,325.2l-9.2,9.3-4.1-4.1,8.8-9c-9.4-8.6-14.9-20.9-14.9-35.8,0-30,23.4-50.6,54.5-50.6s25.7,3.7,35,10.5l9.7-9.9,4.2,4.2-9.3,9.5c9.1,8.6,14.6,20.8,14.6,35.5,0,29.9-23.4,50.7-54.5,50.7s-25.4-3.7-34.7-10.4M250.1,301.6l38.6-39.3c-3.4-13.5-10.2-21.2-19-21.2-13.5,0-20.8,16.4-20.8,43.4s.5,12,1.3,17.1M291.2,286c0-6.1-.4-11.6-1.2-16.6l-38.5,39.2c3.4,13.3,10.1,20.7,18.8,20.7,13.6,0,20.8-16.4,20.8-43.3h0ZM368.8,262.8c9.4-19.4,17.6-27.7,27.4-27.7s13,7,13,15.8-1.1,8.3-2.2,10.6c-2.8-1.1-8.5-2-14.1-2-9.7,0-19.5,2.5-23.8,6.5v51.2c0,7.7,1.8,9.8,12.5,11.5v4.8h-55.9v-4.8c9.7-1.6,11.2-3.7,11.2-10.5v-62.1c0-6.3-.9-7.7-6.2-9.6l-5-1.6v-4.5l43.2-5.3v27.5c0,0,0,0,0,0ZM458.3,253.4c4.9-11.1,17-18.8,33.6-18.8s33.2,10.1,33.2,31.2v52.2c0,7,1.7,9.1,11.3,10.7v4.8h-53.1v-4.8c8.3-1.5,9.8-3.3,9.8-10.2v-51c0-13.1-6.4-19.6-17.5-19.6s-14.2,3.7-17.1,9.2v61.4c0,6.8,1.3,8.6,9.8,10.2v4.8h-53.1v-4.8c9.5-1.7,11.2-3.7,11.2-10.7v-61.9c0-6.3-.8-7.7-6.2-9.6l-5-1.6v-4.5l43.2-5.3v18.2h0ZM583.4,234.7c27.1,0,43.3,16.7,43.3,40.9s-.3,5.1-.5,6.7h-60.9c2.6,25.4,17.1,39.7,36.9,39.7s17.8-3.6,22.7-8.6v4.8c-7,10.7-21.9,17.3-40,17.3-29.1,0-52.1-19.2-52.1-50.3s20.2-50.6,50.7-50.6h0ZM565,276.8l33.4-.4c0-1.9,0-3.9,0-6.7,0-17.4-4.7-28.5-15-28.5s-18.6,11.8-18.6,32.8,0,1.9,0,2.8h0Z"/>
  </g>
</svg>